<svg xmlns="http://www.w3.org/2000/svg" viewBox="0 0 1000.0 1000.0"><g fill="none" stroke="#334155" stroke-width="1.6" stroke-linecap="round"><path d="M1000.0 500.0C1000.0 776.1 776.1 1000.0 500.0 1000.0C223.9 1000.0 0.0 776.1 0.0 500.0C0.0 223.9 223.9 0.0 500.0 0.0C776.1 0.0 1000.0 223.9 1000.0 500.0"/><path d="M500.0 931.4C738.3 931.4 931.4 738.3 931.4 500.0C931.4 291.5 783.5 117.6 586.9 77.3C587.0 77.3 500.0 77.7 500.0 77.7C500.0 77.7 413.0 77.3 413.1 77.3C216.5 117.6 68.6 291.5 68.6 500.0C68.6 738.3 261.7 931.4 500.0 931.4"/><path d="M686.0 714.2C626.7 694.7 608.2 725.3 603.1 732.4C594.8 743.9 598.1 755.0 580.3 759.8C550.5 767.8 401.9 763.7 390.2 766.9C378.5 770.2 369.4 798.2 361.5 810.5C353.7 822.9 341.2 815.4 341.2 815.4C225.7 759.9 153.9 651.8 153.9 527.4C153.9 369.1 274.3 237.0 443.1 206.5C443.1 206.4 517.8 206.8 517.8 206.8C517.8 206.8 703.6 226.8 787.3 375.0C873.5 527.6 808.2 677.7 768.7 729.6"/><path d="M467.4 681.9L574.7 681.9C582.7 681.9 650.6 637.4 650.6 534.3C650.6 431.2 578.6 383.9 569.4 377.6C560.3 371.3 545.6 368.9 537.3 368.9L467.4 368.9L397.6 368.9C389.3 368.9 374.6 371.3 365.5 377.6C356.3 383.9 284.3 431.2 284.3 534.3C284.3 637.4 352.2 681.9 360.2 681.9L467.4 681.9"/><path d="M467.4 665.9L557.1 665.9C563.8 665.9 620.6 631.2 620.6 550.9C620.6 470.5 560.3 433.7 552.7 428.7C545.1 423.8 532.8 422.0 525.9 422.0L467.4 422.0L409.0 422.0C402.1 422.0 389.8 423.8 382.2 428.7C374.6 433.7 314.3 470.5 314.3 550.9C314.3 631.2 371.1 665.9 377.8 665.9L467.4 665.9"/><path d="M608.3 782.8C608.5 781.7 433.2 782.8 427.3 782.8C421.4 782.8 413.4 785.8 405.2 799.0C396.9 812.3 357.2 879.3 357.2 879.3"/><path d="M653.9 879.3C653.9 879.3 626.1 805.6 623.5 792.5C620.9 779.5 619.1 750.4 645.6 730.9C672.1 711.4 707.5 718.8 722.4 730.9C737.4 743.1 782.1 791.9 782.1 791.9"/><path d="M195.2 805.3C194.2 804.5 148.1 855.1 147.2 854.3"/><path d="M348.0 903.9L324.0 968.1"/><path d="M55.4 595.5C52.2 597.8 48.2 599.2 43.9 599.2C39.9 599.2 36.1 597.9 33.0 595.8"/><path d="M35.6 561.7C38.2 560.6 41.0 559.9 43.9 559.9C47.5 559.9 50.8 560.8 53.6 562.4"/><path d="M963.2 412.7C960.0 415.1 956.0 416.4 951.7 416.4C947.7 416.4 943.9 415.2 940.8 413.1"/><path d="M943.4 379.0C945.9 377.8 948.7 377.2 951.7 377.2C955.2 377.2 958.5 378.1 961.4 379.7"/></g></svg>