<svg xmlns="http://www.w3.org/2000/svg" viewBox="0 0 1000.0 1000.0"><g fill="none" stroke="#334155" stroke-width="1.6" stroke-linecap="round"><path d="M946.5 1000.0L53.5 1000.0C24.1 1000.0 0.0 975.9 0.0 946.5L0.0 53.5C0.0 24.1 24.1 0.0 53.5 0.0L946.5 0.0C975.9 0.0 1000.0 24.1 1000.0 53.5L1000.0 946.5C1000.0 975.9 975.9 1000.0 946.5 1000.0"/><path d="M480.2 989.5C479.8 989.5 479.4 989.5 479.0 989.4C477.2 989.0 472.9 987.4 470.6 981.7C467.6 974.4 454.8 937.6 453.3 933.9C451.8 930.2 449.3 927.5 441.9 927.5L394.7 927.5L394.6 927.5L347.3 927.5C340.0 927.5 337.4 930.2 335.9 933.9C334.5 937.6 321.6 974.4 318.7 981.7C316.0 988.3 310.7 989.4 309.6 989.5C309.5 989.5 309.4 989.5 309.3 989.5L165.4 989.5C80.2 989.5 10.5 919.8 10.6 834.6L10.6 165.4C10.5 80.2 80.2 10.5 165.4 10.5L600.0 10.5C600.0 10.5 606.2 9.7 610.8 20.1C615.3 30.6 632.4 80.8 687.4 80.8L687.5 80.8C742.5 80.8 759.6 30.6 764.2 20.1C768.8 9.7 774.9 10.5 774.9 10.5L834.6 10.5C919.8 10.5 989.5 80.2 989.5 165.4L989.5 216.4C989.5 216.4 990.3 222.6 979.9 227.2C969.4 231.8 919.2 248.9 919.2 303.9L919.2 303.9C919.2 358.9 969.4 376.0 979.9 380.6C990.3 385.2 989.5 391.3 989.5 391.3L989.5 834.6C989.5 919.8 919.8 989.5 834.6 989.5L480.2 989.5"/><path d="M71.2 126.6C71.4 126.0 81.2 101.0 113.9 81.3C146.6 61.7 171.2 56.3 221.2 54.3C271.2 52.3 341.8 61.3 358.4 65.5C374.9 69.8 384.5 72.3 390.5 65.3C396.6 58.4 417.9 35.2 422.5 32.1C427.1 29.0 432.1 28.4 442.7 28.4L572.7 28.4C579.3 28.4 588.5 28.6 593.1 33.0C597.7 37.4 633.0 74.9 638.1 79.9C643.3 84.8 651.7 93.7 666.6 93.7L711.9 93.7C718.5 93.7 728.4 94.2 737.0 85.4C745.7 76.6 783.2 38.1 785.9 35.4C788.7 32.6 793.1 30.6 798.6 31.3C804.1 32.1 864.8 42.0 909.5 85.2C954.1 128.4 971.0 194.8 972.3 199.7C973.6 204.7 972.7 212.0 967.0 216.1C961.3 220.1 926.6 253.0 920.7 258.9C914.8 264.8 909.8 273.8 909.8 281.9L909.8 334.7C909.8 341.5 917.0 351.7 924.5 358.2C932.1 364.6 967.0 396.6 970.7 400.8C974.4 405.1 976.7 411.1 976.7 424.5L976.7 547.7C976.7 555.6 975.1 565.9 970.7 570.9C966.3 575.8 942.2 601.2 939.4 604.1C936.7 607.1 930.6 615.3 932.3 622.2C933.9 629.0 949.5 671.0 950.6 741.6C951.5 796.2 946.9 839.7 937.4 863.0C924.2 895.3 899.2 911.7 885.8 917.0"/><path d="M382.4 74.4C382.4 74.4 439.4 93.7 444.4 94.9C449.4 96.2 453.6 97.7 463.7 97.7L651.4 97.7"/><path d="M738.3 94.0C738.3 94.0 743.7 92.6 753.6 102.1C763.5 111.7 898.3 244.4 902.7 249.0C907.1 253.6 909.8 260.0 909.5 262.6"/><path d="M793.7 38.6C793.7 38.6 799.1 37.1 809.0 46.7C818.9 56.2 953.7 189.0 958.1 193.6C962.5 198.2 965.3 204.6 964.9 207.2"/><path d="M703.6 103.8C703.6 103.8 717.7 109.8 717.7 125.8C717.7 141.8 718.2 259.3 717.7 265.3C717.3 270.7 721.2 270.7 725.8 274.4C729.2 277.0 739.4 287.0 742.2 293.5C744.8 299.6 747.7 299.2 750.6 299.2L867.7 299.2C873.6 299.2 881.9 300.8 884.7 305.6"/><path d="M688.7 111.5C688.7 111.5 663.1 128.6 637.0 131.0C610.9 133.4 465.9 127.7 444.9 124.9C424.0 122.2 323.5 99.7 276.4 99.7C224.0 99.7 183.4 109.8 170.9 115.5"/><path d="M170.9 110.2C170.9 110.2 212.9 83.8 267.6 82.1C341.3 79.7 403.6 107.4 426.7 115.7"/><path d="M87.6 306.6C87.6 306.6 85.8 312.1 78.2 313.2C70.7 314.4 54.9 316.1 45.7 322.3C36.5 328.6 32.4 338.0 32.4 348.8C32.4 360.5 36.5 369.0 45.7 375.3C54.9 381.5 70.7 383.2 78.2 384.4C80.6 384.7 82.4 385.5 83.7 386.4C86.5 388.3 87.9 391.6 87.5 394.9C87.1 397.7 85.9 401.9 82.6 406.7C76.6 415.5 67.9 449.0 73.4 475.6C77.5 495.2 87.1 518.0 91.9 528.7C93.4 532.0 95.0 535.1 96.8 538.2C99.3 542.5 102.2 548.9 98.6 553.2C93.8 558.9 64.8 588.1 64.8 623.4C64.8 658.7 93.8 688.0 98.6 693.7C103.4 699.4 96.6 708.9 94.8 712.0C94.8 712.0 68.5 750.8 73.1 803.2"/><path d="M691.5 915.7C691.5 915.7 686.1 917.6 684.9 925.1C683.8 932.6 682.1 948.4 675.8 957.6C669.6 966.8 661.1 970.9 649.4 970.9C638.6 970.9 629.1 966.8 622.9 957.6C616.6 948.4 614.9 932.6 613.8 925.1C612.7 917.6 607.2 915.7 607.2 915.7C607.2 915.7 600.3 912.6 593.7 917.0C587.0 921.4 557.4 930.8 531.5 927.7C505.6 924.5 433.4 890.0 426.6 886.5C419.8 883.0 415.7 884.8 413.3 888.1C410.9 891.5 398.4 915.0 378.4 915.0C358.4 915.0 345.2 891.2 342.7 887.8C340.5 884.7 334.5 884.5 331.2 887.6C327.8 890.7 311.8 906.5 311.8 906.5C311.8 906.5 307.6 910.4 309.7 917.8C311.8 925.1 316.9 940.1 315.1 951.1C313.3 962.1 307.2 969.3 296.6 974.2C286.8 978.7 276.5 979.0 267.0 973.3C257.5 967.5 249.3 953.9 245.1 947.5C240.9 941.2 235.2 941.8 235.2 941.8L185.9 938.9"/><path d="M92.2 391.1C92.2 391.1 105.1 372.3 115.2 362.2C122.1 355.3 123.2 351.5 123.1 349.9C123.1 349.2 123.1 348.4 123.1 347.7C123.2 346.1 122.1 342.3 115.2 335.4C105.1 325.3 92.2 306.5 92.2 306.5"/><path d="M105.1 689.5C105.1 689.5 125.2 659.7 141.0 643.7C151.9 632.6 153.5 626.7 153.5 624.0C153.4 622.9 153.4 621.8 153.5 620.6C153.5 618.0 151.9 612.1 141.0 601.0C125.2 584.9 105.1 555.1 105.1 555.1"/><path d="M130.2 351.6C131.2 351.0 187.2 355.2 220.5 351.6C253.8 347.9 398.1 331.0 421.8 321.8C445.5 312.6 456.9 307.6 468.3 305.6C479.7 303.6 490.5 298.6 510.6 298.1C530.6 297.5 647.7 293.5 656.2 291.1C664.6 288.7 697.2 283.5 701.0 282.1C704.9 280.6 714.6 271.2 714.6 271.2"/><path d="M450.1 303.3C450.1 303.3 442.4 287.0 442.4 262.7C442.4 240.0 458.3 232.3 463.3 222.0C464.1 220.4 464.2 218.1 463.4 216.5C458.4 206.0 442.4 197.9 442.4 175.2C442.4 150.9 450.1 134.6 450.1 134.6"/><path d="M645.5 286.7C645.5 286.7 641.6 273.3 641.6 253.4C641.6 234.8 649.6 228.5 652.1 220.1C652.5 218.8 652.5 217.0 652.1 215.6C649.6 207.0 641.6 200.4 641.6 181.8C641.6 161.9 645.5 148.5 645.5 148.5"/><path d="M467.6 219.6L643.5 219.6"/><path d="M429.7 135.6C429.7 135.6 361.3 125.5 331.0 131.5C300.6 137.6 289.4 142.2 279.3 142.6C269.6 142.9 206.2 134.7 182.4 126.0"/><path d="M429.7 308.5C429.7 308.5 361.3 318.6 331.0 312.5C300.6 306.4 289.4 301.9 279.3 301.5C269.6 301.1 220.7 323.6 196.8 326.7"/><path d="M365.5 342.9C365.5 342.2 349.5 351.2 347.3 365.5C345.1 379.9 350.1 393.3 354.0 403.0C357.8 412.8 374.9 458.0 379.5 466.8C385.0 477.5 379.9 490.2 372.9 500.1C365.2 510.9 323.0 550.5 311.5 556.9C301.9 562.2 290.9 567.6 283.4 570.1C275.8 572.7 228.6 595.3 223.4 597.0C218.3 598.6 161.7 618.7 161.7 618.7"/><path d="M419.9 694.0C419.9 694.0 405.8 731.6 380.2 759.2C354.5 786.9 325.9 789.3 304.2 784.5C282.4 779.8 259.1 760.7 246.6 749.4C233.7 737.6 214.4 715.2 208.5 693.7C202.7 672.2 203.6 643.5 229.9 616.5C256.2 589.4 292.9 573.4 292.9 573.4"/><path d="M308.5 567.6C308.5 567.6 329.3 603.2 356.8 619.6C361.2 622.2 364.8 625.8 367.6 629.9C376.4 643.1 397.7 671.1 425.5 678.6"/><path d="M647.0 861.5C646.4 860.4 646.6 756.0 647.0 744.9C647.3 733.9 665.3 628.4 672.5 607.4C679.7 586.5 681.9 537.2 684.7 517.7C687.4 498.3 692.9 491.6 697.5 482.4C702.1 473.3 701.2 382.4 699.0 366.6C696.8 350.8 699.2 343.1 703.6 337.2C708.0 331.3 723.4 313.1 725.6 310.6C727.8 308.0 740.0 302.3 740.0 302.3"/><path d="M927.7 608.2C927.7 608.2 911.9 561.6 910.6 556.6C909.3 551.7 907.8 547.4 907.8 537.3L907.8 349.6"/><path d="M859.8 318.7C859.8 318.7 874.5 322.0 874.5 364.0C874.5 390.0 877.8 535.1 880.6 556.1C883.4 577.0 905.8 677.5 905.8 724.6C905.8 777.0 895.7 817.6 890.0 830.1"/><path d="M895.3 830.1C895.3 830.1 921.7 788.1 923.4 733.5C925.8 659.7 898.1 597.4 889.8 574.3"/><path d="M647.0 622.3C647.7 622.2 640.0 638.8 625.8 642.1C611.7 645.4 597.9 641.5 587.9 638.4C577.9 635.2 531.6 621.6 522.4 617.7C511.4 613.0 499.0 619.0 489.7 626.8C479.5 635.3 443.2 680.3 437.7 692.3C433.1 702.2 428.6 713.6 426.6 721.3C424.6 729.0 405.6 777.8 404.4 783.1C403.1 788.4 387.4 846.3 387.4 846.3"/><path d="M693.3 903.9C693.3 903.9 673.8 892.3 663.0 882.9C655.6 876.4 651.8 875.6 650.2 875.8C649.4 875.8 648.7 875.9 648.0 875.9C646.4 876.0 642.7 877.3 636.2 884.7C626.8 895.5 609.0 909.6 609.0 909.6"/><path d="M339.8 879.5C339.8 879.5 360.4 858.0 364.8 854.9C369.2 851.7 373.6 849.7 379.1 849.9C383.7 850.1 388.3 851.0 392.2 854.3C396.5 858.0 411.3 873.4 417.0 878.4"/><path d="M229.9 602.7C229.9 602.7 191.6 626.0 172.7 646.8C153.8 667.6 148.4 692.0 153.4 707.4"/><path d="M397.6 758.4C397.6 758.4 376.6 798.0 357.0 818.1C337.4 838.2 313.3 845.0 297.6 841.0"/><path d="M398.6 364.4C398.6 364.4 384.6 368.8 379.9 375.8C374.5 383.7 373.8 391.3 374.9 397.3"/><path d="M392.2 451.0C392.2 451.0 404.5 467.2 413.0 469.6C421.4 472.0 428.2 471.0 429.7 479.0C431.2 486.9 435.9 499.4 440.7 504.9C445.5 510.4 458.0 513.0 462.2 513.9C466.5 514.8 468.5 519.0 469.9 524.4C471.4 529.7 475.6 540.5 482.1 546.8C488.5 553.0 501.4 556.9 505.8 557.6C510.2 558.4 512.2 559.8 514.2 565.3C516.3 570.9 515.5 576.2 524.0 581.3C532.4 586.5 547.5 595.3 547.5 595.3"/><path d="M594.6 614.8C594.6 614.8 613.7 620.5 628.6 597.2"/><path d="M654.7 531.0C654.7 531.0 665.0 502.3 667.7 493.5C670.5 484.7 669.9 474.2 667.7 467.0C665.5 459.8 646.0 412.0 625.3 389.2C604.5 366.5 578.6 343.7 564.8 335.0"/><path d="M280.2 155.2L280.2 290.9"/><path d="M459.5 524.4C459.5 524.4 372.0 615.3 371.2 616.1"/><path d="M642.6 650.6C642.6 650.1 629.9 725.3 617.2 751.6C604.5 777.8 570.7 781.9 553.0 778.6C535.4 775.3 474.4 751.7 460.6 738.1C446.8 724.5 448.8 711.5 451.6 703.4C454.3 695.3 469.8 659.5 469.8 659.5"/><path d="M333.9 353.6C334.5 353.6 259.3 366.2 233.0 378.9C206.7 391.5 202.6 425.4 205.9 443.0C209.2 460.7 232.7 521.7 246.3 535.5C259.9 549.3 273.0 547.3 281.0 544.5C289.1 541.8 325.0 526.4 325.0 526.4"/><path d="M422.5 479.0C422.5 479.0 390.3 510.0 381.9 517.7C373.4 525.5 331.3 555.4 317.6 561.7"/><path d="M510.5 569.5C510.5 569.5 479.3 601.5 471.6 609.9C463.8 618.4 433.7 660.3 427.4 674.1"/><path d="M567.9 318.7C567.9 318.7 614.2 310.9 628.6 309.8C642.9 308.7 659.5 308.9 669.6 317.0C680.6 325.8 694.4 340.9 693.3 374.7"/><path d="M693.3 499.9C693.3 499.9 719.0 513.7 738.3 504.9C757.6 496.0 768.7 498.1 776.7 504.0C784.8 509.8 804.7 519.6 816.6 511.5C828.6 503.4 831.2 497.2 832.4 485.4C833.7 473.6 833.5 398.8 830.6 389.6C827.7 380.4 819.2 373.1 808.9 370.5C798.6 367.9 712.2 368.1 712.2 368.1"/><path d="M685.8 603.3C685.8 603.3 718.4 616.2 754.1 608.1C759.7 606.8 765.5 606.8 771.0 608.1C788.4 612.0 839.9 618.1 868.9 602.6"/><path d="M828.4 512.6L867.0 590.9"/><path d="M761.5 506.7C761.7 508.0 760.6 595.3 761.5 595.3"/><path d="M868.8 626.2C868.7 625.6 867.8 704.2 858.8 732.0C849.8 759.8 825.4 768.2 807.6 770.7C790.1 773.1 729.4 770.9 710.4 767.0C685.9 762.0 663.1 747.5 666.1 704.1C667.6 683.0 684.1 621.8 684.1 621.8"/><path d="M94.2 355.9C92.1 363.0 85.5 368.2 77.7 368.2C70.5 368.2 64.3 363.8 61.7 357.5"/><path d="M61.3 345.7C63.5 338.8 70.0 333.7 77.7 333.7C84.8 333.7 90.9 338.1 93.5 344.3"/><path d="M124.3 608.6C122.2 615.7 115.6 621.0 107.8 621.0C100.6 621.0 94.4 616.5 91.9 610.3"/><path d="M91.4 598.4C93.6 591.5 100.1 586.5 107.8 586.5C115.0 586.5 121.1 590.8 123.7 597.0"/><path d="M300.5 953.3C298.3 960.4 291.7 965.6 283.9 965.6C276.7 965.6 270.5 961.2 268.0 954.9"/><path d="M267.5 943.1C269.8 936.2 276.3 931.2 283.9 931.2C291.1 931.2 297.2 935.5 299.8 941.7"/><path d="M396.6 886.2C394.5 893.3 387.9 898.5 380.1 898.5C372.9 898.5 366.7 894.1 364.1 887.8"/><path d="M363.7 876.0C365.9 869.1 372.4 864.1 380.1 864.1C387.2 864.1 393.3 868.4 395.9 874.6"/><path d="M667.9 933.6C665.8 940.7 659.2 946.0 651.4 946.0C644.2 946.0 638.0 941.5 635.4 935.3"/><path d="M635.0 923.4C637.2 916.5 643.7 911.5 651.4 911.5C658.5 911.5 664.6 915.8 667.3 922.0"/><path d="M246.0 940.7C246.0 940.7 271.0 937.0 301.0 912.2"/></g></svg>